<?xml version="1.0" standalone="no"?>
<!DOCTYPE svg PUBLIC "-//W3C//DTD SVG 20010904//EN"
 "http://www.w3.org/TR/2001/REC-SVG-20010904/DTD/svg10.dtd">
<svg version="1.0" xmlns="http://www.w3.org/2000/svg"
 width="500.000000pt" height="500.000000pt" viewBox="0 0 500.000000 500.000000"
 preserveAspectRatio="xMidYMid meet">
<metadata>
Created by potrace 1.14, written by Peter Selinger 2001-2017
</metadata>
<g transform="translate(0.000000,500.000000) scale(0.100000,-0.100000)"
fill="#000000" stroke="none">
<path d="M3312 3178 c-10 -79 -10 -84 10 -100 24 -21 103 -24 115 -5 4 6 13
47 18 90 8 59 8 77 -1 77 -7 0 -15 -22 -19 -52 -13 -106 -14 -108 -48 -108
-55 0 -60 9 -52 89 9 86 9 85 -2 88 -5 2 -14 -34 -21 -79z"/>
<path d="M3122 3238 c-33 -7 -42 -13 -38 -26 2 -9 10 -44 16 -77 19 -99 13
-93 76 -81 69 12 85 36 60 87 -9 17 -16 42 -16 54 0 22 -29 56 -46 54 -5 -1
-28 -5 -52 -11z m78 -50 c0 -11 -35 -28 -59 -28 -21 0 -39 36 -24 50 25 24 83
9 83 -22z m18 -74 c3 -29 0 -32 -33 -38 -44 -9 -55 -2 -55 34 0 24 5 29 28 33
48 7 57 3 60 -29z"/>
<path d="M3555 3200 c-3 -4 0 -10 7 -12 16 -6 -40 -138 -59 -138 -22 0 -15
-16 13 -29 27 -12 56 -5 34 9 -17 10 36 140 57 140 7 0 13 4 13 9 0 13 -58 32
-65 21z"/>
<path d="M3651 3058 l-55 -71 40 -33 c39 -34 64 -43 64 -24 0 6 -3 10 -7 10
-5 1 -21 11 -37 24 l-29 24 47 60 c43 57 56 82 39 82 -5 -1 -32 -33 -62 -72z"/>
<path d="M1353 3026 c-89 -29 -168 -99 -204 -181 -34 -75 -32 -184 5 -258 48
-98 143 -160 273 -176 38 -5 83 -16 100 -24 102 -53 83 -203 -29 -226 l-33 -7
-3 -98 -3 -99 43 7 c82 13 137 37 189 84 72 64 99 125 99 223 0 95 -20 155
-71 213 -52 59 -128 95 -233 111 -98 14 -132 32 -152 81 -41 98 48 191 163
169 45 -8 93 -54 93 -89 l0 -26 101 0 102 0 -7 46 c-13 100 -73 182 -169 231
-42 21 -69 27 -137 30 -53 2 -101 -2 -127 -11z"/>
<path d="M1830 2533 l0 -508 23 27 c64 77 262 298 267 298 3 0 77 -88 163
-195 l158 -195 124 0 c68 0 126 3 129 8 2 4 -95 123 -215 265 -152 178 -217
262 -211 270 5 7 102 127 216 266 113 140 206 259 206 263 0 4 -55 8 -122 8
l-123 0 -200 -247 -200 -246 -5 244 -5 244 -102 3 -103 3 0 -508z"/>
<path d="M2746 3028 c4 -7 94 -135 201 -284 l193 -271 2 -254 3 -254 100 0
100 0 3 254 2 254 121 170 c67 94 123 177 126 184 4 10 -21 13 -115 13 l-120
0 -53 -72 c-28 -40 -55 -77 -59 -81 -4 -5 -65 73 -136 172 l-128 181 -124 0
c-96 0 -122 -3 -116 -12z"/>
<path d="M3788 2942 c-37 -26 -67 -50 -68 -55 -1 -22 54 -85 78 -90 39 -8 119
48 125 87 4 31 -37 106 -58 105 -5 0 -40 -21 -77 -47z m96 -4 c26 -37 20 -63
-22 -92 -21 -14 -47 -26 -59 -26 -19 0 -53 37 -53 57 0 8 100 82 112 83 4 0
14 -10 22 -22z"/>
<path d="M3979 2785 c-1 -6 -1 -13 -1 -16 2 -12 -133 -56 -139 -46 -4 5 -11 8
-17 6 -7 -3 -5 -17 5 -39 13 -30 16 -32 22 -16 8 21 134 72 139 56 8 -24 24
-8 17 18 -7 29 -24 53 -26 37z"/>
<path d="M3873 2613 c-13 -2 -23 -9 -23 -15 0 -7 24 -9 75 -4 41 4 75 5 75 2
0 -3 -31 -24 -70 -48 -41 -25 -70 -50 -70 -60 0 -14 10 -15 83 -11 94 5 111 9
102 22 -3 6 -36 7 -78 4 l-72 -5 73 47 c39 26 72 53 72 61 0 11 -16 14 -72 13
-40 -1 -83 -4 -95 -6z"/>
<path d="M3856 2407 c-13 -9 -19 -27 -20 -60 0 -26 -4 -47 -8 -47 -5 0 -8 -4
-8 -8 0 -4 19 -13 42 -19 32 -9 45 -9 50 0 11 17 10 47 -2 47 -5 0 -10 -7 -10
-15 0 -8 -9 -15 -20 -15 -25 0 -37 42 -21 76 13 28 16 29 88 8 l55 -16 -5 -35
c-4 -20 -13 -43 -22 -53 -9 -10 -12 -21 -7 -24 25 -15 68 86 50 117 -5 9 -35
24 -66 33 -31 9 -62 18 -67 21 -6 2 -19 -3 -29 -10z"/>
</g>
</svg>
